<?xml version="1.0" encoding="UTF-8" standalone="no"?>
<!DOCTYPE svg PUBLIC "-//W3C//DTD SVG 1.1//EN" "http://www.w3.org/Graphics/SVG/1.1/DTD/svg11.dtd">
<svg width="100%" height="100%" viewBox="0 0 800 800" version="1.1" xmlns="http://www.w3.org/2000/svg" xmlns:xlink="http://www.w3.org/1999/xlink" xml:space="preserve" xmlns:serif="http://www.serif.com/" style="fill-rule:evenodd;clip-rule:evenodd;stroke-linecap:round;stroke-miterlimit:1;">
    <g transform="matrix(1,0,0,1,-235,-1950)">
        <g transform="matrix(2.02015,0,0,2.02017,-51.8034,1393.69)">
            <rect x="142.327" y="275.741" width="396.011" height="396.011" style="fill:none;"/>
            <g transform="matrix(0.495014,0,0,0.495007,-1818.69,-130.418)">
                <path d="M4361.54,911.598C4532.04,911.598 4670.46,1050.02 4670.46,1220.52C4670.46,1391.01 4532.04,1529.44 4361.54,1529.44C4191.04,1529.44 4052.62,1391.01 4052.62,1220.52C4052.62,1050.02 4191.04,911.598 4361.54,911.598ZM4361.54,933.82C4519.77,933.82 4648.24,1062.28 4648.24,1220.52C4648.24,1378.75 4519.77,1507.21 4361.54,1507.21C4203.31,1507.21 4074.84,1378.75 4074.84,1220.52C4074.84,1062.28 4203.31,933.82 4361.54,933.82Z"/>
            </g>
            <g transform="matrix(0.495014,0,0,0.495007,25.6434,-689.886)">
                <path d="M576.485,2186.03L576.485,2209.89C521.551,2233.04 482.941,2287.41 482.941,2350.74C482.941,2435.06 551.398,2503.52 635.719,2503.52C720.039,2503.52 788.496,2435.06 788.496,2350.74C788.496,2287.41 749.886,2233.04 694.952,2209.89L694.952,2186.03C762.422,2210.33 810.719,2274.94 810.719,2350.74C810.719,2447.33 732.304,2525.74 635.719,2525.74C539.134,2525.74 460.719,2447.33 460.719,2350.74C460.719,2274.94 509.015,2210.33 576.485,2186.03Z"/>
            </g>
            <g transform="matrix(0.407179,0,0,0.407174,81.4813,-19.5788)">
                <path d="M635.719,958.256L635.719,1209.63" style="fill:none;stroke:black;stroke-width:27.02px;"/>
            </g>
        </g>
    </g>
</svg>
