<?xml version="1.0" encoding="UTF-8" standalone="no"?>
<!DOCTYPE svg PUBLIC "-//W3C//DTD SVG 1.1//EN" "http://www.w3.org/Graphics/SVG/1.1/DTD/svg11.dtd">
<svg width="100%" height="100%" viewBox="0 0 800 800" version="1.1" xmlns="http://www.w3.org/2000/svg" xmlns:xlink="http://www.w3.org/1999/xlink" xml:space="preserve" xmlns:serif="http://www.serif.com/" style="fill-rule:evenodd;clip-rule:evenodd;stroke-linejoin:round;stroke-miterlimit:2;">
    <g transform="matrix(1,0,0,1,-2083,-809)">
        <g transform="matrix(2.02015,0,0,2.02017,1796.24,252.584)">
            <rect x="142.327" y="275.741" width="396.011" height="396.011" style="fill:none;"/>
            <g transform="matrix(0.495014,0,0,0.495007,-1818.69,-130.418)">
                <circle cx="4361.54" cy="1220.52" r="308.919" style="fill:url(#_Linear1);"/>
            </g>
            <g>
                <g transform="matrix(0.0967769,0,0,0.0967756,279.078,417.343)">
                    <circle cx="632.95" cy="1211.97" r="255.75" style="fill:url(#_Linear2);"/>
                </g>
                <g transform="matrix(0.495014,0,0,0.495007,25.6434,-113.646)">
                    <path d="M465.556,1189.47C503.306,1136.14 565.476,1101.3 635.719,1101.3C705.961,1101.3 768.131,1136.14 805.882,1189.47L781.903,1213.45C750.596,1165.98 696.789,1134.63 635.719,1134.63C574.648,1134.63 520.842,1165.98 489.534,1213.45L465.556,1189.47Z" style="fill:url(#_Linear3);"/>
                </g>
                <g transform="matrix(0.495014,0,0,0.495007,25.6434,-113.646)">
                    <path d="M411.966,1135.88C463.829,1069.21 544.802,1026.3 635.719,1026.3C726.636,1026.3 807.608,1069.21 859.471,1135.88L835.696,1159.66C790.062,1098.93 717.444,1059.63 635.719,1059.63C553.994,1059.63 481.375,1098.93 435.741,1159.66L411.966,1135.88Z" style="fill:url(#_Linear4);"/>
                </g>
                <g transform="matrix(0.495014,0,0,0.495007,25.6434,-113.646)">
                    <path d="M519.811,1243.73C542.772,1203.46 586.098,1176.3 635.719,1176.3C685.34,1176.3 728.666,1203.46 751.626,1243.73L726.872,1268.48C711.174,1233.79 676.246,1209.63 635.719,1209.63C595.192,1209.63 560.263,1233.79 544.565,1268.48L519.811,1243.73Z" style="fill:url(#_Linear5);"/>
                </g>
            </g>
        </g>
    </g>
    <defs>
        <linearGradient id="_Linear1" x1="0" y1="0" x2="1" y2="0" gradientUnits="userSpaceOnUse" gradientTransform="matrix(3.60471e-12,617.839,-617.839,3.60471e-12,4361.54,911.598)"><stop offset="0" style="stop-color:rgb(0,149,217);stop-opacity:1"/><stop offset="1" style="stop-color:rgb(150,225,170);stop-opacity:1"/></linearGradient>
        <linearGradient id="_Linear2" x1="0" y1="0" x2="1" y2="0" gradientUnits="userSpaceOnUse" gradientTransform="matrix(-6.41719e-12,2465.02,-2465.02,-6.41719e-12,632.95,-997.301)"><stop offset="0" style="stop-color:rgb(213,213,209);stop-opacity:1"/><stop offset="1" style="stop-color:white;stop-opacity:1"/></linearGradient>
        <linearGradient id="_Linear3" x1="0" y1="0" x2="1" y2="0" gradientUnits="userSpaceOnUse" gradientTransform="matrix(-1.25458e-12,481.919,-481.919,-1.25458e-12,635.719,877.714)"><stop offset="0" style="stop-color:rgb(213,213,209);stop-opacity:1"/><stop offset="1" style="stop-color:white;stop-opacity:1"/></linearGradient>
        <linearGradient id="_Linear4" x1="0" y1="0" x2="1" y2="0" gradientUnits="userSpaceOnUse" gradientTransform="matrix(-1.25458e-12,481.919,-481.919,-1.25458e-12,635.719,877.714)"><stop offset="0" style="stop-color:rgb(213,213,209);stop-opacity:1"/><stop offset="1" style="stop-color:white;stop-opacity:1"/></linearGradient>
        <linearGradient id="_Linear5" x1="0" y1="0" x2="1" y2="0" gradientUnits="userSpaceOnUse" gradientTransform="matrix(-1.25458e-12,481.919,-481.919,-1.25458e-12,635.719,877.714)"><stop offset="0" style="stop-color:rgb(213,213,209);stop-opacity:1"/><stop offset="1" style="stop-color:white;stop-opacity:1"/></linearGradient>
    </defs>
</svg>
