<?xml version="1.0" encoding="UTF-8" standalone="no"?>
<!DOCTYPE svg PUBLIC "-//W3C//DTD SVG 1.1//EN" "http://www.w3.org/Graphics/SVG/1.1/DTD/svg11.dtd">
<svg width="100%" height="100%" viewBox="0 0 800 800" version="1.1" xmlns="http://www.w3.org/2000/svg" xmlns:xlink="http://www.w3.org/1999/xlink" xml:space="preserve" xmlns:serif="http://www.serif.com/" style="fill-rule:evenodd;clip-rule:evenodd;stroke-linejoin:round;stroke-miterlimit:2;">
    <g transform="matrix(1,0,0,1,-2083,-1950)">
        <g transform="matrix(2.02015,0,0,2.02017,1796.24,1393.69)">
            <rect x="142.327" y="275.741" width="396.011" height="396.011" style="fill:none;"/>
            <g transform="matrix(0.0725826,0,0,0.0725817,294.392,393.103)">
                <circle cx="632.95" cy="1211.97" r="255.75"/>
            </g>
            <g transform="matrix(0.495014,0,0,0.495007,25.6434,-682.563)">
                <path d="M527.985,2293.01C548.612,2254.63 589.14,2228.52 635.719,2228.52C682.297,2228.52 722.825,2254.63 743.453,2293.01L726.872,2309.59C711.174,2274.9 676.246,2250.74 635.719,2250.74C595.192,2250.74 560.263,2274.9 544.565,2309.59L527.985,2293.01Z"/>
            </g>
            <g transform="matrix(0.495014,0,0,0.495007,25.6434,-682.563)">
                <path d="M473.533,2238.55C509.155,2187.18 568.537,2153.52 635.719,2153.52C702.901,2153.52 762.282,2187.18 797.905,2238.55L781.903,2254.55C750.596,2207.09 696.789,2175.74 635.719,2175.74C574.648,2175.74 520.842,2207.09 489.534,2254.55L473.533,2238.55Z"/>
            </g>
            <g transform="matrix(0.495014,0,0,0.495007,25.6434,-682.563)">
                <path d="M419.885,2184.91C469.66,2120.23 547.856,2078.52 635.719,2078.52C723.581,2078.52 801.777,2120.23 851.552,2184.91L835.696,2200.76C790.062,2140.04 717.444,2100.74 635.719,2100.74C553.994,2100.74 481.375,2140.04 435.741,2200.76L419.885,2184.91Z"/>
            </g>
            <g transform="matrix(0.990021,0,0,0.990021,-97.3206,-368.754)">
                <g transform="matrix(69.4439,0,0,69.4439,349.565,979.245)">
                    <path d="M0.863,-0.758L0.708,-0.164L0.553,-0.758L0.446,-0.758L0.289,-0.165L0.135,-0.758L0.013,-0.758L0.235,0.053L0.343,0.053L0.499,-0.523L0.654,0.053L0.762,0.053L0.985,-0.758L0.863,-0.758Z" style="fill-rule:nonzero;"/>
                </g>
                <g transform="matrix(69.4439,0,0,69.4439,418.315,979.245)">
                    <path d="M0.093,0.053L0.211,0.053L0.211,-0.514L0.093,-0.514L0.093,0.053ZM0.089,-0.635L0.214,-0.635L0.214,-0.758L0.089,-0.758L0.089,-0.635Z" style="fill-rule:nonzero;"/>
                </g>
                <g transform="matrix(69.4439,0,0,69.4439,439.287,979.245)">
                    <rect x="0.054" y="-0.325" width="0.338" height="0.114" style="fill-rule:nonzero;"/>
                </g>
                <g transform="matrix(69.4439,0,0,69.4439,470.259,979.245)">
                    <path d="M0.598,-0.646L0.598,-0.758L0.089,-0.758L0.089,0.053L0.208,0.053L0.208,-0.304L0.55,-0.304L0.55,-0.416L0.208,-0.416L0.208,-0.646L0.598,-0.646Z" style="fill-rule:nonzero;"/>
                </g>
                <g transform="matrix(69.4439,0,0,69.4439,513.592,979.245)">
                    <path d="M0.093,0.053L0.211,0.053L0.211,-0.514L0.093,-0.514L0.093,0.053ZM0.089,-0.635L0.214,-0.635L0.214,-0.758L0.089,-0.758L0.089,-0.635Z" style="fill-rule:nonzero;"/>
                </g>
            </g>
        </g>
    </g>
</svg>
