<?xml version="1.0" encoding="UTF-8" standalone="no"?>
<!DOCTYPE svg PUBLIC "-//W3C//DTD SVG 1.1//EN" "http://www.w3.org/Graphics/SVG/1.1/DTD/svg11.dtd">
<svg width="100%" height="100%" viewBox="0 0 800 800" version="1.1" xmlns="http://www.w3.org/2000/svg" xmlns:xlink="http://www.w3.org/1999/xlink" xml:space="preserve" xmlns:serif="http://www.serif.com/" style="fill-rule:evenodd;clip-rule:evenodd;stroke-linejoin:round;stroke-miterlimit:2;">
    <g transform="matrix(1,0,0,1,-2083,-809)">
        <g transform="matrix(2.02015,0,0,2.02017,1792.78,252.584)">
            <rect x="142.327" y="275.741" width="396.011" height="396.011" style="fill:none;"/>
            <g transform="matrix(0.495014,0,0,0.495007,-1818.69,-130.418)">
                <circle cx="4361.54" cy="1220.52" r="308.919" style="fill:url(#_Linear1);"/>
            </g>
            <g transform="matrix(0.872975,0,0,0.872975,41.6305,59.836)">
                <g transform="matrix(0.124308,0.124307,-0.124308,0.124307,411.108,244.963)">
                    <path d="M173,809.628L173,1609.64C173,1644.28 201.08,1672.36 235.719,1672.36L1032.26,1672.36C1066.88,1672.36 1094.98,1644.25 1094.98,1609.64C1094.98,1575.02 1066.88,1546.92 1032.26,1546.92L298.437,1546.92C298.437,1546.92 298.437,809.628 298.437,809.628C298.437,775.013 270.334,746.91 235.719,746.91C201.103,746.91 173,775.013 173,809.628Z" style="fill:white;"/>
                </g>
                <g transform="matrix(0.495014,0,0,0.495007,38.696,-125.031)">
                    <path d="M531.811,1231.91L818.802,1231.91C831.095,1231.91 841.076,1221.93 841.076,1209.63C841.076,1197.34 831.095,1187.36 818.802,1187.36L531.811,1187.36C519.518,1187.36 509.537,1197.34 509.537,1209.63C509.537,1221.93 519.518,1231.91 531.811,1231.91Z" style="fill:white;"/>
                </g>
            </g>
        </g>
    </g>
    <defs>
        <linearGradient id="_Linear1" x1="0" y1="0" x2="1" y2="0" gradientUnits="userSpaceOnUse" gradientTransform="matrix(3.60471e-12,617.839,-617.839,3.60471e-12,4361.54,911.598)"><stop offset="0" style="stop-color:rgb(150,225,170);stop-opacity:1"/><stop offset="1" style="stop-color:rgb(0,149,217);stop-opacity:1"/></linearGradient>
    </defs>
</svg>
