<?xml version="1.0" encoding="UTF-8" standalone="no"?>
<!DOCTYPE svg PUBLIC "-//W3C//DTD SVG 1.1//EN" "http://www.w3.org/Graphics/SVG/1.1/DTD/svg11.dtd">
<svg width="100%" height="100%" viewBox="0 0 800 800" version="1.1" xmlns="http://www.w3.org/2000/svg" xmlns:xlink="http://www.w3.org/1999/xlink" xml:space="preserve" xmlns:serif="http://www.serif.com/" style="fill-rule:evenodd;clip-rule:evenodd;stroke-linejoin:round;stroke-miterlimit:2;">
    <g transform="matrix(1,0,0,1,-3931,-1950)">
        <g transform="matrix(2.02015,0,0,2.02017,3640.82,1393.69)">
            <rect x="142.327" y="275.741" width="396.011" height="396.011" style="fill:none;"/>
            <g transform="matrix(0.495014,0,0,0.495007,-1818.69,-130.418)">
                <circle cx="4361.54" cy="1220.52" r="308.919" style="fill:url(#_Linear1);"/>
            </g>
            <g transform="matrix(1.38778e-16,0.495007,0.495014,1.66533e-16,-264.561,156.306)">
                <path d="M561.857,1209.63L439.22,1209.63L632.261,1016.59L825.301,1209.63L702.665,1209.63L702.665,1239.27C702.665,1408.95 787.957,1403.95 787.957,1420.95C787.957,1438.95 561.857,1430.59 561.857,1239.27L561.857,1209.63Z" style="fill:white;"/>
            </g>
        </g>
    </g>
    <defs>
        <linearGradient id="_Linear1" x1="0" y1="0" x2="1" y2="0" gradientUnits="userSpaceOnUse" gradientTransform="matrix(3.60471e-12,617.839,-617.839,3.60471e-12,4361.54,911.598)"><stop offset="0" style="stop-color:rgb(252,204,161);stop-opacity:1"/><stop offset="1" style="stop-color:rgb(223,100,78);stop-opacity:1"/></linearGradient>
    </defs>
</svg>
