<?xml version="1.0" encoding="UTF-8" standalone="no"?>
<!DOCTYPE svg PUBLIC "-//W3C//DTD SVG 1.1//EN" "http://www.w3.org/Graphics/SVG/1.1/DTD/svg11.dtd">
<svg width="100%" height="100%" viewBox="0 0 800 800" version="1.1" xmlns="http://www.w3.org/2000/svg" xmlns:xlink="http://www.w3.org/1999/xlink" xml:space="preserve" xmlns:serif="http://www.serif.com/" style="fill-rule:evenodd;clip-rule:evenodd;stroke-linecap:round;stroke-linejoin:round;stroke-miterlimit:1;">
    <g transform="matrix(1,0,0,1,-2083,-809)">
        <g transform="matrix(2.02015,0,0,2.02017,1792.78,252.584)">
            <rect x="142.327" y="275.741" width="396.011" height="396.011" style="fill:none;"/>
            <g transform="matrix(0.912816,0,0,0.912816,29.6714,64.9133)">
                <g transform="matrix(0.495014,0,0,0.495007,46.6998,-135.925)">
                    <path d="M526.848,1393.39C526.848,1430.03 556.547,1459.72 593.182,1459.72C629.817,1459.72 659.515,1430.03 659.515,1393.39C659.515,1430.03 629.817,1459.72 593.182,1459.72C556.547,1459.72 526.848,1430.03 526.848,1393.39Z" style="fill:none;stroke:black;stroke-width:24.34px;"/>
                </g>
                <g transform="matrix(0.495014,0,0,0.495007,23.5991,-135.1)">
                    <circle cx="639.848" cy="897.39" r="23.667" style="fill:none;stroke:black;stroke-width:24.34px;"/>
                </g>
                <g transform="matrix(0.495014,0,0,0.50068,34.5279,-130.141)">
                    <path d="M371.281,1366.05C416.614,1304.71 437.395,1196.97 437.395,1104.97C437.395,978.305 505.948,900.714 615.281,900.714L620.261,900.714C729.594,900.714 798.147,978.305 798.147,1104.97C798.147,1196.97 818.927,1304.71 864.261,1366.05L371.281,1366.05Z" style="fill:none;stroke:black;stroke-width:24.21px;"/>
                </g>
                <g transform="matrix(0.542293,0,0,0.542285,-1002.7,-208.086)">
                    <path d="M2328.09,1283.63L2625.06,1283.63" style="fill:none;stroke:black;stroke-width:22.22px;"/>
                </g>
            </g>
        </g>
    </g>
</svg>
